<svg t="1755493044235" class="icon" viewBox="0 0 1024 1024" version="1.1" xmlns="http://www.w3.org/2000/svg" p-id="5482" width="200" height="200"><path d="M448 981.333333h-298.666667C89.6 981.333333 42.666667 934.4 42.666667 874.666667v-725.333334C42.666667 89.6 89.6 42.666667 149.333333 42.666667h298.666667C507.733333 42.666667 554.666667 89.6 554.666667 149.333333v725.333334c0 59.733333-46.933333 106.666667-106.666667 106.666666z m-298.666667-853.333333c-12.8 0-21.333333 8.533333-21.333333 21.333333v725.333334c0 12.8 8.533333 21.333333 21.333333 21.333333h298.666667c12.8 0 21.333333-8.533333 21.333333-21.333333v-725.333334c0-12.8-8.533333-21.333333-21.333333-21.333333h-298.666667zM832 388.266667c-8.533333 0-12.8 0-21.333333-4.266667-17.066667-8.533333-25.6-29.866667-21.333334-46.933333 0 0 12.8-51.2-17.066666-85.333334-17.066667-25.6-51.2-38.4-102.4-38.4-25.6 0-42.666667-17.066667-42.666667-42.666666s17.066667-42.666667 42.666667-42.666667c76.8 0 136.533333 21.333333 170.666666 68.266667 12.8 17.066667 21.333333 34.133333 29.866667 51.2l21.333333-21.333334c17.066667-17.066667 42.666667-17.066667 59.733334 0 17.066667 17.066667 17.066667 42.666667 0 59.733334l-85.333334 89.6c-12.8 8.533333-21.333333 12.8-34.133333 12.8zM874.666667 981.333333h-209.066667c-25.6 0-42.666667-17.066667-42.666667-42.666666s17.066667-42.666667 42.666667-42.666667h209.066667c12.8 0 21.333333-8.533333 21.333333-21.333333v-298.666667c0-12.8-8.533333-21.333333-21.333333-21.333333h-209.066667c-25.6 0-42.666667-17.066667-42.666667-42.666667s17.066667-42.666667 42.666667-42.666667h209.066667c59.733333 0 106.666667 46.933333 106.666666 106.666667v298.666667c0 59.733333-46.933333 106.666667-106.666666 106.666666z" fill="#fff" p-id="5483"></path></svg>